<svg width="55" height="55" viewBox="0 0 55 55" fill="none" xmlns="http://www.w3.org/2000/svg">
<path d="M43.5417 13.75H38.9583C38.9583 7.33329 33.9167 2.29163 27.5 2.29163C21.0833 2.29163 16.0417 7.33329 16.0417 13.75H11.4583C8.9375 13.75 6.875 15.8125 6.875 18.3333V45.8333C6.875 48.3541 8.9375 50.4166 11.4583 50.4166H43.5417C46.0625 50.4166 48.125 48.3541 48.125 45.8333V18.3333C48.125 15.8125 46.0625 13.75 43.5417 13.75ZM27.5 6.87496C31.3958 6.87496 34.375 9.85413 34.375 13.75H20.625C20.625 9.85413 23.6042 6.87496 27.5 6.87496ZM43.5417 45.8333H11.4583V18.3333H43.5417V45.8333ZM27.5 27.5C23.6042 27.5 20.625 24.5208 20.625 20.625H16.0417C16.0417 27.0416 21.0833 32.0833 27.5 32.0833C33.9167 32.0833 38.9583 27.0416 38.9583 20.625H34.375C34.375 24.5208 31.3958 27.5 27.5 27.5Z" fill="#F5F5F5"/>
</svg>
