<svg width="576" height="512" viewBox="0 0 576 512" fill="none" xmlns="http://www.w3.org/2000/svg">
<path d="M0 384C0 419.3 28.7 448 64 448L370.7 448C387.7 448 404 441.3 416 429.3L566.6 278.6C572.6 272.6 576 264.5 576 256C576 247.5 572.6 239.4 566.6 233.4L416 82.7C404 70.7 387.7 64 370.7 64L64 64C28.7 64 0 92.7 0 128V384ZM305 337C295.6 346.4 280.4 346.4 271.1 337L224.1 290L177.1 337C167.7 346.4 152.5 346.4 143.2 337C133.9 327.6 133.8 312.4 143.2 303.1L190.2 256.1L143.2 209.1C133.8 199.7 133.8 184.5 143.2 175.2C152.6 165.9 167.8 165.8 177.1 175.2L224.1 222.2L271.1 175.2C280.5 165.8 295.7 165.8 305 175.2C314.3 184.6 314.4 199.8 305 209.1L258 256.1L305 303.1C314.4 312.5 314.4 327.7 305 337Z" fill="black"/>
</svg>
