<svg width="28" height="28" viewBox="0 0 28 28" fill="none" xmlns="http://www.w3.org/2000/svg">
<path d="M12.3484 25.6047L12.2117 25.4789L2.63047 16.5812C0.951562 15.0226 0 12.8351 0 10.5437V10.3633C0 6.51327 2.73438 3.21014 6.51875 2.48827C8.67344 2.07264 10.8773 2.5703 12.6328 3.80624C13.125 4.15624 13.5844 4.56092 14 5.02577C14.2297 4.76327 14.4758 4.52264 14.7383 4.29842C14.9406 4.12342 15.1484 3.95936 15.3672 3.80624C17.1227 2.5703 19.3266 2.07264 21.4812 2.4828C25.2656 3.20467 28 6.51327 28 10.3633V10.5437C28 12.8351 27.0484 15.0226 25.3695 16.5812L15.7883 25.4789L15.6516 25.6047C15.2031 26.0203 14.6125 26.2555 14 26.2555C13.3875 26.2555 12.7969 26.0258 12.3484 25.6047ZM13.0758 7.92967C13.0539 7.91327 13.0375 7.89139 13.0211 7.86952L12.0477 6.77577L12.0422 6.7703C10.7789 5.35389 8.87031 4.70858 7.01094 5.06405C4.4625 5.55077 2.625 7.77108 2.625 10.3633V10.5437C2.625 12.1023 3.27578 13.5953 4.41875 14.6562L14 23.5539L23.5813 14.6562C24.7242 13.5953 25.375 12.1023 25.375 10.5437V10.3633C25.375 7.77655 23.5375 5.55077 20.9945 5.06405C19.1352 4.70858 17.2211 5.35936 15.9633 6.7703C15.9633 6.7703 15.9633 6.7703 15.9578 6.77577C15.9523 6.78124 15.9578 6.77577 15.9523 6.78124L14.9789 7.87499C14.9625 7.89686 14.9406 7.91327 14.9242 7.93514C14.6781 8.18124 14.3445 8.31796 14 8.31796C13.6555 8.31796 13.3219 8.18124 13.0758 7.93514V7.92967Z" fill="black"/>
</svg>
