<svg width="45" height="45" viewBox="0 0 45 45" fill="none" xmlns="http://www.w3.org/2000/svg">
<path fill-rule="evenodd" clip-rule="evenodd" d="M30.6819 16.3636C30.6819 18.5335 29.8199 20.6146 28.2855 22.149C26.7511 23.6834 24.67 24.5454 22.5001 24.5454C20.3301 24.5454 18.249 23.6834 16.7146 22.149C15.1802 20.6146 14.3182 18.5335 14.3182 16.3636C14.3182 14.1936 15.1802 12.1125 16.7146 10.5782C18.249 9.04377 20.3301 8.18176 22.5001 8.18176C24.67 8.18176 26.7511 9.04377 28.2855 10.5782C29.8199 12.1125 30.6819 14.1936 30.6819 16.3636ZM26.591 16.3636C26.591 17.4486 26.16 18.4891 25.3928 19.2563C24.6256 20.0235 23.585 20.4545 22.5001 20.4545C21.4151 20.4545 20.3745 20.0235 19.6073 19.2563C18.8402 18.4891 18.4091 17.4486 18.4091 16.3636C18.4091 15.2786 18.8402 14.2381 19.6073 13.4709C20.3745 12.7037 21.4151 12.2727 22.5001 12.2727C23.585 12.2727 24.6256 12.7037 25.3928 13.4709C26.16 14.2381 26.591 15.2786 26.591 16.3636Z" fill="white"/>
<path fill-rule="evenodd" clip-rule="evenodd" d="M22.5 0C10.0739 0 0 10.0739 0 22.5C0 34.9261 10.0739 45 22.5 45C34.9261 45 45 34.9261 45 22.5C45 10.0739 34.9261 0 22.5 0ZM4.09091 22.5C4.09091 26.775 5.54932 30.7105 7.99364 33.8359C9.71025 31.5816 11.9248 29.7547 14.4643 28.4979C17.0038 27.2411 19.7995 26.5884 22.633 26.5909C25.4298 26.5883 28.1903 27.224 30.7042 28.4498C33.2181 29.6755 35.419 31.4589 37.1393 33.6641C38.9116 31.3396 40.1049 28.6266 40.6205 25.7494C41.136 22.8722 40.9591 19.9136 40.1042 17.1184C39.2493 14.3232 37.7411 11.7717 35.7044 9.67508C33.6677 7.57846 31.161 5.99699 28.3917 5.0615C25.6224 4.126 22.6702 3.8634 19.7793 4.2954C16.8883 4.7274 14.1418 5.8416 11.767 7.54579C9.39221 9.24999 7.45734 11.4952 6.12251 14.0956C4.78769 16.6961 4.09128 19.577 4.09091 22.5ZM22.5 40.9091C18.274 40.9154 14.1755 39.4616 10.8982 36.7936C12.2174 34.9051 13.9732 33.3632 16.0163 32.2991C18.0594 31.235 20.3293 30.6802 22.633 30.6818C24.9078 30.68 27.1503 31.2209 29.1742 32.2597C31.198 33.2985 32.9448 34.8052 34.2695 36.6545C30.9667 39.4092 26.8007 40.9151 22.5 40.9091Z" fill="white"/>
</svg>
