<svg width="45" height="45" viewBox="0 0 45 45" fill="none" xmlns="http://www.w3.org/2000/svg">
<path d="M36.4069 12.5231C38.3381 14.5744 39.375 16.875 39.375 20.6044C39.375 27.1669 34.77 33.0487 28.0687 35.9569L26.3944 33.3731C32.6475 29.9906 33.87 25.6013 34.3594 22.8338C33.3525 23.355 32.0344 23.5369 30.7406 23.4169C27.3581 23.1038 24.6919 20.3269 24.6919 16.875C24.6919 15.1345 25.3833 13.4653 26.614 12.2346C27.8447 11.0039 29.5139 10.3125 31.2544 10.3125C33.2662 10.3125 35.1919 11.2312 36.4069 12.5231ZM17.6569 12.5231C19.5881 14.5744 20.625 16.875 20.625 20.6044C20.625 27.1669 16.02 33.0487 9.31873 35.9569L7.64435 33.3731C13.8975 29.9906 15.12 25.6013 15.6075 22.8338C14.6006 23.355 13.2825 23.5369 11.9906 23.4169C8.6081 23.1056 5.94373 20.3287 5.94373 16.875C5.94373 15.1345 6.63513 13.4653 7.86584 12.2346C9.09654 11.0039 10.7657 10.3125 12.5062 10.3125C14.5181 10.3125 16.4437 11.2312 17.6587 12.5231" fill="#91919C"/>
</svg>
