<svg width="45" height="45" viewBox="0 0 45 45" fill="none" xmlns="http://www.w3.org/2000/svg">
<path d="M8.59315 32.4769C6.6619 30.4256 5.62502 28.125 5.62502 24.3956C5.62502 17.8331 10.23 11.9513 16.9313 9.04313L18.6056 11.6269C12.3525 15.0094 11.13 19.3988 10.6406 22.1663C11.6475 21.645 12.9656 21.4631 14.2594 21.5831C17.6419 21.8962 20.3081 24.6731 20.3081 28.125C20.3081 29.8655 19.6167 31.5347 18.386 32.7654C17.1553 33.9961 15.4861 34.6875 13.7456 34.6875C11.7338 34.6875 9.80815 33.7688 8.59315 32.4769ZM27.3431 32.4769C25.4119 30.4256 24.375 28.125 24.375 24.3956C24.375 17.8331 28.98 11.9513 35.6813 9.04313L37.3556 11.6269C31.1025 15.0094 29.88 19.3988 29.3925 22.1663C30.3994 21.645 31.7175 21.4631 33.0094 21.5831C36.3919 21.8944 39.0563 24.6713 39.0563 28.125C39.0563 29.8655 38.3649 31.5347 37.1342 32.7654C35.9035 33.9961 34.2343 34.6875 32.4938 34.6875C30.4819 34.6875 28.5563 33.7688 27.3413 32.4769" fill="#91919C"/>
</svg>
