<svg width="40" height="41" viewBox="0 0 40 41" fill="none" xmlns="http://www.w3.org/2000/svg">
<path d="M36.8889 40.5L22.8889 26.5C21.7778 27.3889 20.5 28.0926 19.0556 28.6111C17.6111 29.1296 16.0741 29.3889 14.4444 29.3889C10.4074 29.3889 6.99111 27.9904 4.19556 25.1933C1.4 22.3963 0.00148266 18.98 1.17578e-06 14.9444C-0.00148031 10.9089 1.39704 7.49259 4.19556 4.69556C6.99408 1.89852 10.4104 0.5 14.4444 0.5C18.4785 0.5 21.8956 1.89852 24.6956 4.69556C27.4956 7.49259 28.8933 10.9089 28.8889 14.9444C28.8889 16.5741 28.6296 18.1111 28.1111 19.5556C27.5926 21 26.8889 22.2778 26 23.3889L40 37.3889L36.8889 40.5ZM14.4444 24.9444C17.2222 24.9444 19.5837 23.9726 21.5289 22.0289C23.4741 20.0852 24.4459 17.7237 24.4444 14.9444C24.443 12.1652 23.4711 9.80445 21.5289 7.86222C19.5867 5.92 17.2252 4.94741 14.4444 4.94444C11.6637 4.94148 9.30297 5.91407 7.36222 7.86222C5.42148 9.81037 4.44889 12.1711 4.44445 14.9444C4.44 17.7178 5.41259 20.0793 7.36222 22.0289C9.31185 23.9785 11.6726 24.9504 14.4444 24.9444Z" fill="#F5F5F5"/>
</svg>
